<svg width="1200" height="760" viewBox="0 0 1200 760" fill="none" xmlns="http://www.w3.org/2000/svg" role="img" aria-label="Default project architecture visual">
  <rect width="1200" height="760" fill="#0e140d"/>
  <rect x="118" y="92" width="964" height="576" rx="18" fill="#f7f3e8"/>
  <rect x="152" y="128" width="896" height="504" rx="10" fill="#152215"/>
  <path d="M236 484C317 407 385 390 474 431C548 465 601 463 684 411C766 360 830 357 959 425" stroke="#d2a642" stroke-width="8" stroke-linecap="round"/>
  <path d="M239 529C325 470 398 454 492 483C576 509 642 496 714 440C791 380 858 363 958 382" stroke="#b4c69b" stroke-width="6" stroke-linecap="round"/>
  <rect x="214" y="190" width="288" height="82" rx="8" fill="#0e140d"/>
  <text x="238" y="226" fill="#f7f3e8" font-family="Arial, sans-serif" font-size="23" font-weight="700">Project visual</text>
  <text x="238" y="254" fill="#b9c0ad" font-family="Arial, sans-serif" font-size="17">Architecture, metrics, and shipped work</text>
  <rect x="770" y="508" width="202" height="72" rx="8" fill="#25381f" stroke="#42583a" stroke-width="2"/>
  <text x="795" y="540" fill="#f7f3e8" font-family="Arial, sans-serif" font-size="20" font-weight="700">cover pending</text>
  <text x="795" y="565" fill="#c7d6b3" font-family="Arial, sans-serif" font-size="15">repo SVG fallback</text>
  <circle cx="328" cy="395" r="17" fill="#d2a642"/>
  <circle cx="328" cy="395" r="7" fill="#152215"/>
  <circle cx="529" cy="333" r="17" fill="#d2a642"/>
  <circle cx="529" cy="333" r="7" fill="#152215"/>
  <circle cx="714" cy="388" r="17" fill="#d2a642"/>
  <circle cx="714" cy="388" r="7" fill="#152215"/>
  <circle cx="909" cy="323" r="17" fill="#d2a642"/>
  <circle cx="909" cy="323" r="7" fill="#152215"/>
  <path d="M345 391L512 338M546 338L697 383M731 382L892 328" stroke="#5f724e" stroke-width="4" stroke-linecap="round"/>
  <rect x="238" y="312" width="104" height="38" rx="19" fill="#24351f" stroke="#55684a"/>
  <rect x="366" y="292" width="132" height="38" rx="19" fill="#24351f" stroke="#55684a"/>
  <rect x="522" y="270" width="108" height="38" rx="19" fill="#24351f" stroke="#55684a"/>
  <rect x="654" y="296" width="154" height="38" rx="19" fill="#24351f" stroke="#55684a"/>
  <rect x="832" y="264" width="114" height="38" rx="19" fill="#24351f" stroke="#55684a"/>
</svg>
