<svg width="1200" height="760" viewBox="0 0 1200 760" fill="none" xmlns="http://www.w3.org/2000/svg" role="img" aria-label="AI fitness trainer pose estimation visual">
  <rect width="1200" height="760" fill="#F7F3EA"/>
  <rect x="64" y="58" width="1072" height="644" rx="8" fill="#FFFDF8" stroke="#D8CFBC"/>
  <rect x="118" y="112" width="420" height="526" rx="8" fill="#E4EBDD" stroke="#C6D0BC"/>
  <circle cx="330" cy="210" r="38" fill="#314A36"/>
  <path d="M330 248V374" stroke="#314A36" stroke-width="16" stroke-linecap="round"/>
  <path d="M330 296L248 344" stroke="#314A36" stroke-width="14" stroke-linecap="round"/>
  <path d="M330 296L426 332" stroke="#314A36" stroke-width="14" stroke-linecap="round"/>
  <path d="M330 374L260 510" stroke="#314A36" stroke-width="14" stroke-linecap="round"/>
  <path d="M330 374L428 508" stroke="#314A36" stroke-width="14" stroke-linecap="round"/>
  <g stroke="#A77F35" stroke-width="3" opacity="0.8">
    <circle cx="330" cy="210" r="52"/>
    <circle cx="248" cy="344" r="20"/>
    <circle cx="426" cy="332" r="20"/>
    <circle cx="260" cy="510" r="20"/>
    <circle cx="428" cy="508" r="20"/>
  </g>
  <g>
    <rect x="626" y="146" width="392" height="112" rx="8" fill="#171714"/>
    <text x="656" y="190" font-family="Arial, sans-serif" font-size="19" fill="#B8B2A5">YOLOv11 pose</text>
    <text x="656" y="228" font-family="Arial, sans-serif" font-size="30" font-weight="700" fill="#F4EFE5">Rep + form check</text>
    <rect x="626" y="302" width="392" height="112" rx="8" fill="#E4EBDD" stroke="#C6D0BC"/>
    <text x="656" y="348" font-family="Arial, sans-serif" font-size="19" fill="#676A60">Local vision LLM</text>
    <text x="656" y="386" font-family="Arial, sans-serif" font-size="30" font-weight="700" fill="#171714">Coaching feedback</text>
  </g>
</svg>
